<svg xmlns="http://www.w3.org/2000/svg" xmlns:xlink="http://www.w3.org/1999/xlink" fill="#ffffff" height="800px" width="800px" version="1.2" baseProfile="tiny" id="tractor_by_Adioma" viewBox="0 0 256 196" xml:space="preserve">
<path d="M175.9,154.3c0,21.6,17.5,39.1,39.1,39.1s39.1-17.5,39.1-39.1c0-21.6-17.5-39.1-39.1-39.1S175.9,132.7,175.9,154.3z   M202.2,154.3c0-7,5.7-12.7,12.7-12.7c7,0,12.7,5.7,12.7,12.7c0,7-5.7,12.7-12.7,12.7C207.9,167,202.2,161.3,202.2,154.3z M2,148  c0,25,20.3,45.3,45.3,45.3c25,0,45.3-20.3,45.3-45.3s-20.3-45.3-45.3-45.3C22.3,102.7,2,123,2,148z M28.4,148c0-2.7,0.6-5.3,1.6-7.6  c2.9-6.7,9.6-11.3,17.3-11.3s14.4,4.7,17.3,11.3c1,2.3,1.6,4.9,1.6,7.6c0,10.4-8.5,18.9-18.9,18.9S28.4,158.5,28.4,148z M99.7,140.4  h70.6c5.9-19,23.7-32.8,44.6-32.8V75.4c0-8.1-6.6-14.7-14.7-14.7h-15.5V16.2h-12.5v44.5h-45.4L105.2,8.3c-1.5-3.3-4.8-5.5-8.4-5.5  H34.4v57.9L11.8,81.4v27.4c9.4-8.5,21.9-13.7,35.6-13.7C73.9,95.1,96,114.8,99.7,140.4z M47.3,60.7v-45H94l16.2,45H47.3z" fill="#ffffff"/>
</svg>